
    <svg height="59" width="59" xmlns="http://www.w3.org/2000/svg" xmlns:xlink="http://www.w3.org/1999/xlink">
        <defs>
            <linearGradient id="b" x1="50%" x2="50%" y1="95.423%" y2="0%">
                <stop offset="0" stop-color="#3967ff" />
                <stop offset="1" stop-color="#b500fe" />
            </linearGradient>
            <linearGradient id="f" x1="50%" x2="50%" y1="0%" y2="100%">
                <stop offset="0" stop-color="#3967ff" />
                <stop offset="1" stop-color="#b500fe" />
            </linearGradient>
            <linearGradient id="g" x1="50%" x2="50%" y1="0%" y2="100%">
                <stop offset="0" stop-color="#1c98ff" />
                <stop offset="1" stop-color="#574ae4" />
            </linearGradient>
            <linearGradient id="h" x1="100%" x2="26.765%" y1="15.127%" y2="100%">
                <stop offset="0" stop-color="#ef478f" />
                <stop offset="1" stop-color="#ae48c0" />
            </linearGradient>
            <linearGradient id="j" x1="100%" x2="26.765%" y1="15.127%" y2="100%">
                <stop offset="0" stop-color="#ff4695" />
                <stop offset="1" stop-color="#cc34e7" />
            </linearGradient>
            <path id="a"
                d="M19.907 0c10.995 0 19.908 8.913 19.908 19.907 0 10.995-8.913 19.908-19.908 19.908C8.913 39.815 0 30.902 0 19.907 0 8.913 8.913 0 19.907 0zm0 7.13C12.85 7.13 7.13 12.85 7.13 19.907s5.72 12.778 12.777 12.778 12.778-5.72 12.778-12.778S26.965 7.13 19.907 7.13z" />
            <path id="e"
                d="M19.924 12.406L31.7 35.958a19.818 19.818 0 01-11.776 3.855 19.818 19.818 0 01-11.776-3.855z" />
            <filter id="d" height="364.2%" width="344.3%" x="-122.1%" y="-143%">
                <feMorphology in="SourceAlpha" operator="dilate" radius=".5" result="shadowSpreadOuter1" />
                <feOffset in="shadowSpreadOuter1" result="shadowOffsetOuter1" />
                <feGaussianBlur in="shadowOffsetOuter1" result="shadowBlurOuter1" stdDeviation="9" />
                <feColorMatrix in="shadowBlurOuter1"
                    values="0 0 0 0 0.0392156863 0 0 0 0 0.0509803922 0 0 0 0 0.145098039 0 0 0 1 0" />
            </filter>
            <circle id="i" cx="20" cy="16.296" r="3.519" />
            <mask id="c" fill="#fff">
                <use fill-rule="evenodd" xlink:href="#a" />
            </mask>
        </defs>
        <g fill="none" fill-rule="evenodd">
            <g transform="rotate(-135 26.652 22.755)">
                <use fill="url(#b)" xlink:href="#a" />
                <g mask="url(#c)">
                    <use fill="#000" filter="url(#d)" xlink:href="#e" />
                    <use fill="url(#f)" xlink:href="#e" />
                </g>
                <path
                    d="M20 22.34a5.79 5.79 0 004.054-1.623L31.7 36.009a19.818 19.818 0 01-11.776 3.855 19.818 19.818 0 01-11.776-3.855l7.697-15.393A5.783 5.783 0 0020 22.341z"
                    fill="url(#g)" />
                <use fill="url(#h)" xlink:href="#i" />
                <use fill="url(#j)" xlink:href="#i" />
            </g>
        </g>
    </svg>